<svg width="24" height="24" viewBox="0 0 24 24" fill="none" xmlns="http://www.w3.org/2000/svg">
<g id="video-eye 1">
<g id="Group">
<path id="video-eye" d="M21.8991 6.20804C21.6447 6.08422 21.3603 6.03549 21.0792 6.06755C20.7981 6.0996 20.532 6.21113 20.3121 6.38904L17.7491 8.43904V8.00004C17.8078 7.49338 17.7512 6.98 17.5835 6.4983C17.4158 6.0166 17.1414 5.57906 16.7807 5.2184C16.42 4.85774 15.9825 4.5833 15.5008 4.4156C15.0191 4.24791 14.5057 4.19131 13.9991 4.25004H4.99906C4.4924 4.19131 3.97902 4.24791 3.49732 4.4156C3.01563 4.5833 2.57808 4.85774 2.21742 5.2184C1.85676 5.57906 1.58232 6.0166 1.41463 6.4983C1.24694 6.98 1.19034 7.49338 1.24906 8.00004V16C1.19034 16.5067 1.24694 17.0201 1.41463 17.5018C1.58232 17.9835 1.85676 18.421 2.21742 18.7817C2.57808 19.1423 3.01563 19.4168 3.49732 19.5845C3.97902 19.7522 4.4924 19.8088 4.99906 19.75H13.9991C14.5057 19.8088 15.0191 19.7522 15.5008 19.5845C15.9825 19.4168 16.42 19.1423 16.7807 18.7817C17.1414 18.421 17.4158 17.9835 17.5835 17.5018C17.7512 17.0201 17.8078 16.5067 17.7491 16V15.561L20.3121 17.611C20.5765 17.8246 20.9061 17.9411 21.2461 17.941C21.4721 17.9407 21.6952 17.8898 21.8991 17.792C22.1545 17.6704 22.3701 17.4786 22.5206 17.239C22.6711 16.9994 22.7504 16.722 22.7491 16.439V7.56104C22.7504 7.2781 22.6711 7.00064 22.5206 6.76106C22.3701 6.52148 22.1545 6.32967 21.8991 6.20804ZM16.2491 16C16.2491 17.577 15.5761 18.25 13.9991 18.25H4.99906C3.42206 18.25 2.74906 17.577 2.74906 16V8.00004C2.74906 6.42304 3.42206 5.75004 4.99906 5.75004H13.9991C15.5761 5.75004 16.2491 6.42304 16.2491 8.00004V16ZM21.2491 16.44L17.7491 13.64V10.36L21.2491 7.56004V16.44ZM9.49906 8.12504C8.57239 8.16528 7.6725 8.448 6.88933 8.94497C6.10615 9.44193 5.46711 10.1357 5.03606 10.957C4.84802 11.2723 4.74875 11.6325 4.74875 11.9995C4.74875 12.3666 4.84802 12.7268 5.03606 13.042C5.46698 13.8635 6.10596 14.5575 6.88915 15.0547C7.67233 15.5518 8.57229 15.8347 9.49906 15.875C10.4257 15.8348 11.3256 15.5521 12.1088 15.0551C12.892 14.5581 13.531 13.8643 13.9621 13.043C14.1501 12.7278 14.2494 12.3676 14.2494 12.0005C14.2494 11.6335 14.1501 11.2733 13.9621 10.958C13.5311 10.1365 12.8922 9.44255 12.109 8.9454C11.3258 8.44825 10.4258 8.16537 9.49906 8.12504ZM12.6731 12.275C12.3706 12.8695 11.9192 13.3755 11.3629 13.7435C10.8067 14.1116 10.1645 14.3292 9.49906 14.375C8.8336 14.3292 8.19139 14.1117 7.63509 13.7437C7.0788 13.3756 6.62744 12.8696 6.32506 12.275C6.27549 12.1917 6.24933 12.0965 6.24933 11.9995C6.24933 11.9026 6.27549 11.8074 6.32506 11.724C6.62765 11.1297 7.07908 10.624 7.63535 10.2561C8.19162 9.88825 8.83373 9.67082 9.49906 9.62504C10.1645 9.67082 10.8067 9.88836 11.363 10.2564C11.9193 10.6245 12.3707 11.1305 12.6731 11.725C12.7226 11.8082 12.7488 11.9032 12.7488 12C12.7488 12.0969 12.7226 12.1919 12.6731 12.275ZM10.5191 12C10.5191 12.1974 10.4606 12.3903 10.3512 12.5546C10.2418 12.7188 10.0862 12.8469 9.90402 12.9229C9.72187 12.9989 9.52132 13.0193 9.32762 12.9815C9.13391 12.9437 8.95572 12.8495 8.81548 12.7106C8.67524 12.5717 8.57922 12.3945 8.53951 12.2012C8.4998 12.0079 8.51818 11.8071 8.59234 11.6242C8.6665 11.4413 8.79311 11.2845 8.95624 11.1734C9.11937 11.0623 9.31172 11.002 9.50906 11H9.51906C9.78428 11 10.0386 11.1054 10.2262 11.2929C10.4137 11.4805 10.5191 11.7348 10.5191 12Z" fill="#AF0808"/>
</g>
</g>
</svg>
