<svg width="20" height="20" viewBox="0 0 20 20" fill="none" xmlns="http://www.w3.org/2000/svg">
<path d="M19.176 7.60759C18.7847 7.12811 18.2807 6.7531 17.709 6.51611C17.1373 6.27913 16.5158 6.18756 15.9 6.24959H12.747V3.76259C12.7475 3.14526 12.5954 2.53738 12.3042 1.99305C12.013 1.44871 11.5918 0.984797 11.078 0.642589C10.7827 0.445981 10.4466 0.319202 10.095 0.271867C9.74345 0.224532 9.38572 0.257886 9.04897 0.369397C8.71222 0.480909 8.40529 0.667649 8.15146 0.915453C7.89763 1.16326 7.70357 1.46561 7.584 1.79959L5.456 8.24959H2.5C1.90351 8.25038 1.33167 8.48769 0.909886 8.90948C0.488101 9.33126 0.250794 9.9031 0.25 10.4996V17.4996C0.250794 18.0961 0.488101 18.6679 0.909886 19.0897C1.33167 19.5115 1.90351 19.7488 2.5 19.7496H13.9C16.4 19.7496 17.008 18.5366 17.458 17.1856L19.458 11.1856C19.7001 10.61 19.8009 9.98482 19.7518 9.36232C19.7027 8.73982 19.5053 8.13813 19.176 7.60759ZM1.75 17.4996V10.4996C1.75026 10.3008 1.82937 10.1101 1.96996 9.96955C2.11056 9.82896 2.30117 9.74985 2.5 9.74959H4.5V18.2496H2.5C2.30117 18.2493 2.11056 18.1702 1.96996 18.0296C1.82937 17.889 1.75026 17.6984 1.75 17.4996ZM18.037 10.7106L16.037 16.7106C15.682 17.7776 15.459 18.2496 13.903 18.2496H6V9.74959C6.15759 9.74933 6.3111 9.69944 6.43873 9.60699C6.56636 9.51455 6.66162 9.38424 6.711 9.23459L9 2.29359C9.04454 2.17574 9.1151 2.06947 9.20644 1.9827C9.29777 1.89593 9.40751 1.83089 9.52748 1.79244C9.64745 1.75399 9.77455 1.74311 9.8993 1.76063C10.0241 1.77814 10.1433 1.82359 10.248 1.89359C10.5561 2.09901 10.8086 2.37741 10.9831 2.70402C11.1575 3.03063 11.2485 3.3953 11.248 3.76559V6.99959C11.248 7.1985 11.327 7.38927 11.4677 7.52992C11.6083 7.67057 11.7991 7.74959 11.998 7.74959H15.9C16.2758 7.71095 16.6555 7.7569 17.0113 7.88408C17.3671 8.01126 17.6898 8.21645 17.956 8.48459C18.1389 8.82471 18.2413 9.20225 18.2553 9.58817C18.2694 9.97409 18.1947 10.3581 18.037 10.7106Z" fill="#0F1010"/>
</svg>
