<svg width="20" height="20" viewBox="0 0 20 20" fill="none" xmlns="http://www.w3.org/2000/svg">
<path d="M19.176 12.3924C18.7847 12.8719 18.2807 13.2469 17.709 13.4839C17.1373 13.7209 16.5158 13.8124 15.9 13.7504H12.747V16.2374C12.7475 16.8547 12.5954 17.4626 12.3042 18.007C12.013 18.5513 11.5918 19.0152 11.078 19.3574C10.7827 19.554 10.4466 19.6808 10.095 19.7281C9.74345 19.7755 9.38572 19.7421 9.04897 19.6306C8.71222 19.5191 8.40529 19.3324 8.15146 19.0845C7.89763 18.8367 7.70357 18.5344 7.584 18.2004L5.456 11.7504H2.5C1.90351 11.7496 1.33167 11.5123 0.909886 11.0905C0.488101 10.6687 0.250794 10.0969 0.25 9.50041V2.50041C0.250794 1.90392 0.488101 1.33208 0.909886 0.910299C1.33167 0.488514 1.90351 0.251205 2.5 0.250412H13.9C16.4 0.250412 17.008 1.46341 17.458 2.81441L19.458 8.81441C19.7001 9.38999 19.8009 10.0152 19.7518 10.6377C19.7027 11.2602 19.5053 11.8619 19.176 12.3924ZM1.75 2.50041V9.50041C1.75026 9.69924 1.82937 9.88985 1.96996 10.0304C2.11056 10.171 2.30117 10.2501 2.5 10.2504H4.5V1.75041H2.5C2.30117 1.75068 2.11056 1.82978 1.96996 1.97038C1.82937 2.11097 1.75026 2.30158 1.75 2.50041ZM18.037 9.28941L16.037 3.28941C15.682 2.22241 15.459 1.75041 13.903 1.75041H6V10.2504C6.15759 10.2507 6.3111 10.3006 6.43873 10.393C6.56636 10.4855 6.66162 10.6158 6.711 10.7654L9 17.7064C9.04454 17.8243 9.1151 17.9305 9.20644 18.0173C9.29777 18.1041 9.40751 18.1691 9.52748 18.2076C9.64745 18.246 9.77455 18.2569 9.8993 18.2394C10.0241 18.2219 10.1433 18.1764 10.248 18.1064C10.5561 17.901 10.8086 17.6226 10.9831 17.296C11.1575 16.9694 11.2485 16.6047 11.248 16.2344V13.0004C11.248 12.8015 11.327 12.6107 11.4677 12.4701C11.6083 12.3294 11.7991 12.2504 11.998 12.2504H15.9C16.2758 12.2891 16.6555 12.2431 17.0113 12.1159C17.3671 11.9887 17.6898 11.7836 17.956 11.5154C18.1389 11.1753 18.2413 10.7977 18.2553 10.4118C18.2694 10.0259 18.1947 9.64192 18.037 9.28941Z" fill="#0F1010"/>
</svg>
