<svg width="20" height="20" viewBox="0 0 20 17" fill="none" xmlns="http://www.w3.org/2000/svg">
<path d="M19.458 1.55701C19.4157 1.26547 19.2694 0.999072 19.046 0.807014C18.677 0.506014 18.179 0.494014 18.078 0.500014C17.374 0.513014 16.551 0.786014 11.709 2.81001C10.105 3.48201 6.85299 4.89101 2.044 6.99701C1.044 7.39701 0.569995 7.80601 0.508995 8.31601C0.391995 9.23601 1.35099 9.54001 2.27899 9.83401L2.63899 9.94901C3.34699 10.181 4.64299 10.572 5.36099 10.587C6.02299 10.603 6.69799 10.354 7.44999 9.83301C9.26364 8.59811 11.084 7.37309 12.911 6.15801C12.056 6.98901 10.977 7.99701 10.428 8.51101C10.1675 8.75133 9.90981 8.99468 9.65499 9.24101C9.52999 9.37201 9.402 9.49601 9.279 9.61501C8.75 10.128 8.24999 10.612 8.31099 11.279C8.35599 11.766 8.69699 12.204 9.382 12.658C10.068 13.111 10.612 13.485 11.158 13.859C11.742 14.259 12.327 14.659 13.081 15.157C13.27 15.282 13.45 15.411 13.626 15.536C14.288 16.011 14.972 16.5 15.822 16.5C15.8908 16.5 15.9595 16.497 16.028 16.491C16.579 16.44 17.299 16.032 17.605 14.376C18.119 11.618 19.236 5.04601 19.489 2.35301C19.5092 2.08773 19.4992 1.82101 19.459 1.55801L19.458 1.55701ZM18.493 2.25501C18.242 4.92101 17.133 11.45 16.622 14.193C16.45 15.122 16.154 15.475 15.935 15.495C15.354 15.549 14.851 15.184 14.206 14.724C14.02 14.591 13.829 14.454 13.63 14.322C12.882 13.828 12.302 13.431 11.722 13.034C11.172 12.657 10.622 12.281 9.93299 11.824C9.37099 11.452 9.31 11.242 9.305 11.187C9.287 10.997 9.652 10.645 9.972 10.333C10.104 10.206 10.241 10.073 10.375 9.93201C10.433 9.87101 10.714 9.61001 11.108 9.24101C14.792 5.79701 15.005 5.47901 15.068 5.20901C15.107 5.03101 15.102 4.66701 14.838 4.43601C14.6991 4.31102 14.5178 4.24378 14.331 4.24801C14.211 4.24801 14.109 4.27101 14.051 4.28501C13.886 4.32201 13.744 4.35401 6.88399 9.00801C6.31499 9.40201 5.80199 9.60901 5.38099 9.58701C4.957 9.57801 4.048 9.35801 2.94799 8.99901L2.57899 8.88001C2.18099 8.75401 1.57799 8.56301 1.49399 8.46401C1.49399 8.46201 1.60299 8.24901 2.42199 7.92201L2.43699 7.91601C7.24599 5.81001 10.495 4.40301 12.094 3.73301C16.363 1.94901 17.54 1.51001 18.095 1.50101C18.204 1.50401 18.352 1.53401 18.411 1.58101C18.439 1.60501 18.457 1.64801 18.471 1.72501C18.491 1.84601 18.51 2.08801 18.492 2.25601L18.493 2.25501Z" fill="#EEF1F2"/>
</svg>
