<svg width="20" height="20" viewBox="0 0 24 24" fill="none" xmlns="http://www.w3.org/2000/svg">
<g clip-path="url(#clip0_279_3566)">
<path d="M21 0H3C1.34766 0 0 1.34766 0 2.95781V16.4156C0 18.068 1.34766 19.3734 3 19.3734H7.5V23.31C7.5 23.7712 8.01703 24.0389 8.39625 23.7647L14.25 19.4578H21C22.6523 19.4578 24 18.1102 24 16.5V2.95783C24 1.34768 22.6547 0 21 0ZM22.5 16.5C22.5 17.325 21.825 18 21 18H14.2453C13.9206 18 13.6045 18.1054 13.3448 18.3003L9 21.5625V18.75C9 18.3357 8.66419 18 8.25 18H3C2.175 18 1.5 17.325 1.5 16.5V3.00002C1.5 2.17502 2.175 1.50002 3 1.50002H21C21.825 1.50002 22.5 2.17502 22.5 3.00002V16.5ZM5.83125 9.02814C5.325 8.88283 4.8375 8.77502 4.88437 8.50783C4.921 8.29689 5.36625 8.20024 5.89219 8.27786C6.087 8.30862 6.30234 8.37602 6.50578 8.44633C6.89836 8.58255 7.32469 8.37311 7.45922 7.98199C7.59398 7.59086 7.386 7.16308 6.99487 7.02855C6.70781 6.92814 6.39844 6.83908 6.12188 6.79689C4.68328 6.57133 3.59344 7.15872 3.40312 8.25424C3.138 9.80252 4.64531 10.245 5.21391 10.4105C5.85703 10.5955 6.41484 10.712 6.36516 10.9889C6.32812 11.2031 5.89219 11.3016 5.35781 11.2219C5.05781 11.175 4.70625 11.0344 4.37719 10.9172C3.98461 10.778 3.62719 11.0051 3.48797 11.3949C3.34875 11.7846 3.61828 12.2391 4.00781 12.3797C4.35047 12.5063 4.73906 12.6469 5.12813 12.7031C5.32969 12.736 5.52656 12.75 5.67656 12.75C6.81469 12.75 7.6425 12.1861 7.80375 11.2439C8.11406 9.67971 6.62813 9.25783 5.83125 9.02814ZM18.5812 9.02814C18.075 8.88283 17.5875 8.77502 17.6344 8.50783C17.671 8.29689 18.1177 8.20024 18.6422 8.27786C18.837 8.30862 19.0523 8.37602 19.2558 8.44633C19.6498 8.58255 20.0747 8.37311 20.2092 7.98199C20.344 7.59086 20.136 7.16308 19.7449 7.02855C19.4563 6.92894 19.15 6.83814 18.8735 6.79563C17.4321 6.57007 16.3436 7.15746 16.1547 8.25297C15.8896 9.80125 17.3969 10.2438 17.9655 10.4092C18.6086 10.5942 19.1664 10.7107 19.1168 10.9877C19.0801 11.2015 18.6424 11.2997 18.1061 11.2191C17.8088 11.1728 17.4546 11.0345 17.1274 10.9173C16.7348 10.7782 16.3774 11.0052 16.2382 11.395C16.0989 11.7848 16.3685 12.2373 16.758 12.378C17.1007 12.5025 17.4902 12.6431 17.8774 12.7017C18.0797 12.736 18.2766 12.75 18.4266 12.75C19.5647 12.75 20.3925 12.1861 20.5538 11.2439C20.8641 9.67971 19.3781 9.25783 18.5812 9.02814ZM14.4891 6.78752C14.1858 6.69086 13.8459 6.79045 13.6509 7.04974L12 9.24846L10.35 7.05002C10.1578 6.79221 9.81562 6.68908 9.51094 6.78752C9.20625 6.89064 9 7.17658 9 7.50002V12C9 12.4146 9.33544 12.75 9.75 12.75C10.1646 12.75 10.5 12.4125 10.5 12V9.75002L11.3995 10.9495C11.6837 11.3275 12.3164 11.3275 12.6005 10.9495L13.5 9.75002V12C13.5 12.4146 13.8354 12.75 14.25 12.75C14.6646 12.75 15 12.4125 15 12V7.50002C15 7.17658 14.7938 6.89064 14.4891 6.78752Z" fill="#EEF1F2"/>
<g clip-path="url(#clip1_279_3566)">
<path d="M19.3547 19.6688C19.425 19.7109 19.5094 19.7344 19.5938 19.7344C19.8516 19.7344 20.0625 19.5234 20.0625 19.2656C20.0625 19.0078 19.8516 18.7969 19.5938 18.7969C19.3359 18.7969 19.125 19.0078 19.125 19.2656C19.125 19.35 19.1484 19.4297 19.1859 19.5L19.1456 19.655C19.1365 19.6901 19.169 19.7218 19.2039 19.7118L19.3547 19.6688Z" stroke="#EEF1F2" stroke-width="1.5" stroke-miterlimit="10" stroke-linecap="round" stroke-linejoin="round"/>
<path d="M19.8047 19.3991C19.8047 19.4067 19.803 19.4145 19.7994 19.4221C19.7958 19.4297 19.7912 19.4369 19.785 19.4437C19.7747 19.455 19.7633 19.4633 19.7504 19.4685C19.7377 19.4738 19.724 19.4766 19.7092 19.4766C19.6877 19.4766 19.6646 19.4715 19.6403 19.4612C19.616 19.4508 19.5917 19.4369 19.5677 19.4194C19.5434 19.4017 19.5203 19.3821 19.4984 19.3603C19.4766 19.3384 19.457 19.3154 19.4394 19.2914C19.4221 19.2673 19.4082 19.2433 19.398 19.2194C19.3879 19.1954 19.3828 19.1724 19.3828 19.1505C19.3828 19.1361 19.3853 19.1224 19.3904 19.1097C19.3955 19.0969 19.4035 19.0851 19.4147 19.0745C19.4282 19.0612 19.443 19.0547 19.4587 19.0547C19.4646 19.0547 19.4705 19.056 19.4758 19.0585C19.4813 19.061 19.4861 19.0648 19.4899 19.0703L19.5389 19.1393C19.5427 19.1445 19.5455 19.1494 19.5474 19.154C19.5493 19.1585 19.5503 19.1629 19.5503 19.1669C19.5503 19.172 19.5489 19.177 19.5459 19.1819C19.5432 19.1867 19.5391 19.1918 19.5341 19.1969L19.518 19.2135C19.5157 19.2158 19.5146 19.2186 19.5146 19.222C19.5146 19.2236 19.5148 19.2251 19.5153 19.2268C19.5159 19.2285 19.5165 19.2298 19.517 19.231C19.5208 19.238 19.5273 19.2471 19.5366 19.258C19.5461 19.269 19.5562 19.2802 19.5672 19.2914C19.5786 19.3025 19.5896 19.3129 19.6008 19.3224C19.6118 19.3316 19.6209 19.338 19.6281 19.3418C19.6291 19.3422 19.6304 19.3428 19.6319 19.3435C19.6336 19.3441 19.6353 19.3443 19.6372 19.3443C19.6408 19.3443 19.6435 19.343 19.6458 19.3407L19.6619 19.3249C19.6672 19.3196 19.6722 19.3156 19.6771 19.3131C19.6819 19.3101 19.6868 19.3087 19.6921 19.3087C19.6961 19.3087 19.7003 19.3095 19.705 19.3114C19.7096 19.3133 19.7145 19.316 19.7198 19.3196L19.7897 19.3692C19.7952 19.373 19.799 19.3774 19.8013 19.3827C19.8034 19.388 19.8047 19.3932 19.8047 19.3991Z" stroke="#EEF1F2" stroke-width="1.5" stroke-miterlimit="10"/>
</g>
</g>
<defs>
<clipPath id="clip0_279_3566">
<rect width="24" height="24" fill="white"/>
</clipPath>
<clipPath id="clip1_279_3566">
<rect width="1.125" height="1.125" fill="white" transform="translate(19.0312 18.7031)"/>
</clipPath>
</defs>
</svg>
