<svg width="20" height="20" viewBox="0 0 24 24" fill="none" xmlns="http://www.w3.org/2000/svg">
<g clip-path="url(#clip0_279_3569)">
<path d="M20.5714 0H3.42857C1.53482 0 0 1.53536 0 3.42857V20.5714C0 22.4646 1.53482 24 3.42857 24H20.5714C22.4652 24 24 22.4646 24 20.5714V3.42857C24 1.53536 22.4625 0 20.5714 0ZM22.2857 20.5714C22.2857 21.5164 21.5164 22.2857 20.5714 22.2857H3.42857C2.48357 22.2857 1.71429 21.5164 1.71429 20.5714V3.42857C1.71429 2.48357 2.48357 1.71429 3.42857 1.71429H20.5714C21.5164 1.71429 22.2857 2.48357 22.2857 3.42857V20.5714ZM17.7375 5.31429L15.3702 4.76518C14.4316 4.55175 13.4716 5.03304 13.0891 5.91804L11.9893 8.48036C11.6378 9.30214 11.8654 10.2364 12.5545 10.8059L12.9973 11.1692C12.5089 11.8875 11.8875 12.5089 11.1643 13.0018L10.8054 12.5625C10.2536 11.8875 9.3 11.6464 8.48571 11.9893L5.91964 13.0875C5.92132 13.0867 5.91881 13.0883 5.91964 13.0875C5.03732 13.4717 4.55089 14.43 4.76571 15.3675L5.31214 17.7396C5.52321 18.6482 6.32143 19.2857 7.25893 19.2857C13.8911 19.2857 19.2857 13.8911 19.2857 7.25893C19.2857 6.27321 18.6482 5.52321 17.7375 5.31429ZM7.25893 17.5714C7.125 17.5714 7.01454 17.4844 6.98438 17.3538L6.43393 14.9839C6.40379 14.8533 6.47243 14.7177 6.59716 14.6625L9.15038 13.5675C9.2625 13.5214 9.40179 13.5536 9.47679 13.6446L10.3114 14.6636C10.5717 14.98 11.0212 15.0704 11.3845 14.8728C12.8625 14.0676 14.07 12.8612 14.8736 11.3837C15.0703 11.0221 14.9824 10.5716 14.6643 10.3107L13.6475 9.47711C13.5488 9.39589 13.5186 9.26952 13.5697 9.14984L14.6647 6.59448C14.7054 6.49286 14.8125 6.42857 14.9196 6.42857C14.9397 6.42857 14.9598 6.43108 14.9799 6.4361L17.3504 6.98628C17.4857 6.96964 17.5714 7.125 17.5714 7.25893C17.5714 12.9429 12.9429 17.5714 7.25893 17.5714Z" fill="#EEF1F2"/>
</g>
<defs>
<clipPath id="clip0_279_3569">
<rect width="24" height="24" fill="white"/>
</clipPath>
</defs>
</svg>
