<svg width="20" height="20" viewBox="0 0 22 22" fill="none" xmlns="http://www.w3.org/2000/svg">
<path d="M6.72981 20.045L7.05046 19.367C6.91224 19.3017 6.75734 19.2801 6.60651 19.3052L6.72981 20.045ZM1.93562 15.229L2.67595 15.3491C2.70005 15.2004 2.67884 15.0479 2.61508 14.9115L1.93562 15.229ZM20.25 11C20.25 16.1086 16.1087 20.25 11 20.25V21.75C16.9371 21.75 21.75 16.9371 21.75 11H20.25ZM1.75 11C1.75 5.89137 5.89136 1.75 11 1.75V0.25C5.06293 0.25 0.25 5.06294 0.25 11H1.75ZM11 1.75C16.1087 1.75 20.25 5.89137 20.25 11H21.75C21.75 5.06294 16.9371 0.25 11 0.25V1.75ZM2.49779 21.5107L6.85311 20.7848L6.60651 19.3052L2.25119 20.0311L2.49779 21.5107ZM11 20.25C9.58557 20.25 8.24731 19.9331 7.05046 19.367L6.40916 20.723C7.80229 21.3819 9.35917 21.75 11 21.75V20.25ZM2.61508 14.9115C2.06027 13.7244 1.75 12.3995 1.75 11H0.25C0.25 12.6234 0.61036 14.1648 1.25616 15.5466L2.61508 14.9115ZM1.19529 15.109L0.48265 19.5044L1.96332 19.7445L2.67595 15.3491L1.19529 15.109ZM2.25119 20.0311C2.08245 20.0592 1.93594 19.9134 1.96332 19.7445L0.48265 19.5044C0.291 20.6865 1.31657 21.7076 2.49779 21.5107L2.25119 20.0311ZM15 14.1111V13.6749C15 13.1331 14.6701 12.6458 14.167 12.4446L13.7005 12.258C13.1789 12.0494 12.5845 12.2753 12.3333 12.7778C12.3333 12.7778 11.2222 12.5556 10.3333 11.6667C9.44437 10.7778 9.22217 9.6667 9.22217 9.6667C9.72467 9.4155 9.95057 8.82105 9.74197 8.29949L9.55537 7.83296C9.35417 7.32988 8.8669 7 8.32506 7H7.88886C7.39794 7 6.99997 7.39797 6.99997 7.88889C6.99997 11.8162 10.1838 15 14.1111 15C14.602 15 15 14.602 15 14.1111Z" fill="#EEF1F2"/>
</svg>
