<svg width="41" height="40" viewBox="0 0 41 40" fill="none" xmlns="http://www.w3.org/2000/svg">
<path d="M36.8412 16.736H35.4987V16.6668H20.4987V23.3335H29.9179C28.5437 27.2143 24.8512 30.0002 20.4987 30.0002C14.9762 30.0002 10.4987 25.5227 10.4987 20.0002C10.4987 14.4777 14.9762 10.0002 20.4987 10.0002C23.0479 10.0002 25.367 10.9618 27.1329 12.5327L31.847 7.8185C28.8704 5.04433 24.8887 3.3335 20.4987 3.3335C11.2945 3.3335 3.83203 10.796 3.83203 20.0002C3.83203 29.2043 11.2945 36.6668 20.4987 36.6668C29.7029 36.6668 37.1654 29.2043 37.1654 20.0002C37.1654 18.8827 37.0504 17.7918 36.8412 16.736Z" fill="#FFC107"/>
<path d="M5.75391 12.2427L11.2297 16.2585C12.7114 12.5902 16.2997 10.0002 20.4989 10.0002C23.0481 10.0002 25.3672 10.9618 27.1331 12.5327L31.8472 7.8185C28.8706 5.04433 24.8889 3.3335 20.4989 3.3335C14.0972 3.3335 8.54557 6.94766 5.75391 12.2427Z" fill="#FF3D00"/>
<path d="M20.5016 36.6668C24.8066 36.6668 28.7182 35.0192 31.6757 32.3401L26.5174 27.9751C24.8441 29.2426 22.7641 30.0001 20.5016 30.0001C16.1666 30.0001 12.4857 27.2359 11.0991 23.3784L5.66406 27.5659C8.4224 32.9634 14.0241 36.6668 20.5016 36.6668Z" fill="#4CAF50"/>
<path d="M36.8425 16.7357H35.5V16.6665H20.5V23.3332H29.9192C29.2592 25.1973 28.06 26.8048 26.5133 27.9757L26.5158 27.974L31.6742 32.339C31.3092 32.6707 37.1667 28.3332 37.1667 19.9998C37.1667 18.8823 37.0517 17.7915 36.8425 16.7357Z" fill="#1976D2"/>
</svg>
