<svg width="36" height="36" viewBox="0 0 36 36" fill="none" xmlns="http://www.w3.org/2000/svg">
<path d="M35.4724 33.5276L28.4305 26.4857C31.1 23.3152 32.4419 19.2362 32.1761 15.1C31.9102 10.9639 30.0572 7.0902 27.0038 4.28752C23.9503 1.48483 19.9325 -0.0302978 15.7887 0.0583709C11.645 0.147039 7.69559 1.83265 4.76485 4.76339C1.83412 7.69413 0.148504 11.6435 0.0598357 15.7873C-0.0288329 19.931 1.48629 23.9489 4.28898 27.0023C7.09167 30.0557 10.9653 31.9087 15.1015 32.1746C19.2377 32.4404 23.3167 31.0986 26.4872 28.4291L33.529 35.4709C33.7897 35.7138 34.1344 35.846 34.4906 35.8397C34.8469 35.8334 35.1867 35.6891 35.4387 35.4372C35.6906 35.1853 35.8349 34.8454 35.8412 34.4892C35.8475 34.133 35.7152 33.7882 35.4724 33.5276ZM2.87569 16.1659C2.87569 13.537 3.65523 10.9672 5.11574 8.78144C6.57625 6.59563 8.65212 4.89201 11.0809 3.88599C13.5096 2.87998 16.1821 2.61676 18.7604 3.12962C21.3388 3.64248 23.7071 4.90839 25.566 6.76726C27.4249 8.62614 28.6908 10.9945 29.2036 13.5728C29.7165 16.1511 29.4533 18.8237 28.4473 21.2524C27.4412 23.6811 25.7376 25.757 23.5518 27.2175C21.366 28.678 18.7962 29.4576 16.1674 29.4576C12.6434 29.4537 9.26484 28.0521 6.77302 25.5602C4.28119 23.0684 2.87957 19.6899 2.87569 16.1659Z" fill="#1A1B1B"/>
</svg>
