<svg width="18" height="14" viewBox="0 0 18 14" fill="none" xmlns="http://www.w3.org/2000/svg">
<path d="M17.25 2.1875H0.75C0.567664 2.1875 0.392795 2.11507 0.263864 1.98614C0.134933 1.8572 0.0625 1.68234 0.0625 1.5C0.0625 1.31766 0.134933 1.1428 0.263864 1.01386C0.392795 0.884933 0.567664 0.8125 0.75 0.8125H17.25C17.4323 0.8125 17.6072 0.884933 17.7361 1.01386C17.8651 1.1428 17.9375 1.31766 17.9375 1.5C17.9375 1.68234 17.8651 1.8572 17.7361 1.98614C17.6072 2.11507 17.4323 2.1875 17.25 2.1875ZM17.9375 7C17.9375 6.81766 17.8651 6.6428 17.7361 6.51386C17.6072 6.38493 17.4323 6.3125 17.25 6.3125H0.75C0.567664 6.3125 0.392795 6.38493 0.263864 6.51386C0.134933 6.6428 0.0625 6.81766 0.0625 7C0.0625 7.18234 0.134933 7.3572 0.263864 7.48614C0.392795 7.61507 0.567664 7.6875 0.75 7.6875H17.25C17.4323 7.6875 17.6072 7.61507 17.7361 7.48614C17.8651 7.3572 17.9375 7.18234 17.9375 7ZM17.9375 12.5C17.9375 12.3177 17.8651 12.1428 17.7361 12.0139C17.6072 11.8849 17.4323 11.8125 17.25 11.8125H9C8.81766 11.8125 8.6428 11.8849 8.51386 12.0139C8.38493 12.1428 8.3125 12.3177 8.3125 12.5C8.3125 12.6823 8.38493 12.8572 8.51386 12.9861C8.6428 13.1151 8.81766 13.1875 9 13.1875H17.25C17.4323 13.1875 17.6072 13.1151 17.7361 12.9861C17.8651 12.8572 17.9375 12.6823 17.9375 12.5Z" fill="#1A1B1B"/>
</svg>
