<svg width="38" height="30" viewBox="0 0 38 30" fill="none" xmlns="http://www.w3.org/2000/svg">
<path d="M16.6291 0.869793C16.9728 1.21359 17.1659 1.67983 17.1659 2.16596C17.1659 2.65209 16.9728 3.11833 16.6291 3.46213L6.92532 13.166L35.4996 13.166C35.9859 13.166 36.4522 13.3591 36.796 13.7029C37.1398 14.0467 37.333 14.5131 37.333 14.9993C37.333 15.4855 37.1398 15.9518 36.796 16.2957C36.4522 16.6395 35.9859 16.8326 35.4996 16.8326L6.92532 16.8326L16.6291 26.5365C16.9631 26.8822 17.1479 27.3453 17.1437 27.826C17.1395 28.3067 16.9467 28.7665 16.6068 29.1065C16.2669 29.4464 15.8071 29.6392 15.3264 29.6434C14.8457 29.6475 14.3826 29.4627 14.0368 29.1288L1.20348 16.2955C1.03275 16.1252 0.897293 15.9228 0.804869 15.7001C0.712445 15.4774 0.664871 15.2386 0.664871 14.9975C0.664871 14.7563 0.712445 14.5175 0.804869 14.2948C0.897293 14.0721 1.03275 13.8698 1.20348 13.6995L14.0368 0.866127C14.3811 0.522917 14.8476 0.330496 15.3337 0.331182C15.8199 0.331871 16.2858 0.525608 16.6291 0.869793Z" fill="#2F3030"/>
</svg>
