<svg width="18" height="20" viewBox="0 0 18 20" fill="none" xmlns="http://www.w3.org/2000/svg">
<path d="M8.99998 18.25H3.99998C2.42298 18.25 1.74998 17.577 1.74998 16V4.00001C1.74998 2.42301 2.42298 1.75001 3.99998 1.75001H9.24998V4.00001C9.19125 4.50667 9.24785 5.02005 9.41554 5.50174C9.58323 5.98344 9.85768 6.42098 10.2183 6.78164C10.579 7.14231 11.0165 7.41675 11.4982 7.58444C11.9799 7.75213 12.4933 7.80873 13 7.75001H15.25V10C15.25 10.1989 15.329 10.3897 15.4696 10.5303C15.6103 10.671 15.8011 10.75 16 10.75C16.1989 10.75 16.3897 10.671 16.5303 10.5303C16.671 10.3897 16.75 10.1989 16.75 10V7.00001C16.7501 6.90152 16.7307 6.804 16.6929 6.71304C16.6551 6.62208 16.5998 6.53948 16.53 6.47001L10.53 0.470006C10.4605 0.400209 10.3779 0.344839 10.2869 0.307083C10.196 0.269326 10.0985 0.249929 9.99998 0.250006H3.99998C3.49332 0.191282 2.97994 0.247882 2.49824 0.415574C2.01654 0.583265 1.579 0.857706 1.21834 1.21837C0.857675 1.57903 0.583235 2.01657 0.415543 2.49827C0.247852 2.97997 0.191251 3.49335 0.249975 4.00001V16C0.191251 16.5067 0.247852 17.02 0.415543 17.5017C0.583235 17.9834 0.857675 18.421 1.21834 18.7816C1.579 19.1423 2.01654 19.4167 2.49824 19.5844C2.97994 19.7521 3.49332 19.8087 3.99998 19.75H8.99998C9.19889 19.75 9.38965 19.671 9.5303 19.5303C9.67096 19.3897 9.74998 19.1989 9.74998 19C9.74998 18.8011 9.67096 18.6103 9.5303 18.4697C9.38965 18.329 9.19889 18.25 8.99998 18.25ZM10.75 4.00001V2.81101L14.189 6.25001H13C11.423 6.25001 10.75 5.57701 10.75 4.00001ZM12 9.25001C12.1989 9.25001 12.3897 9.32902 12.5303 9.46968C12.671 9.61033 12.75 9.80109 12.75 10C12.75 10.1989 12.671 10.3897 12.5303 10.5303C12.3897 10.671 12.1989 10.75 12 10.75H4.99998C4.80106 10.75 4.6103 10.671 4.46965 10.5303C4.32899 10.3897 4.24998 10.1989 4.24998 10C4.24998 9.80109 4.32899 9.61033 4.46965 9.46968C4.6103 9.32902 4.80106 9.25001 4.99998 9.25001H12ZM9.74998 14C9.74998 14.1989 9.67096 14.3897 9.5303 14.5303C9.38965 14.671 9.19889 14.75 8.99998 14.75H4.99998C4.80106 14.75 4.6103 14.671 4.46965 14.5303C4.32899 14.3897 4.24998 14.1989 4.24998 14C4.24998 13.8011 4.32899 13.6103 4.46965 13.4697C4.6103 13.329 4.80106 13.25 4.99998 13.25H8.99998C9.19889 13.25 9.38965 13.329 9.5303 13.4697C9.67096 13.6103 9.74998 13.8011 9.74998 14Z" fill="#0F1010"/>
<path d="M14.4176 11.9022C13.7089 11.9022 13.0161 12.1124 12.4268 12.5061C11.8375 12.8998 11.3782 13.4595 11.107 14.1142C10.8358 14.769 10.7648 15.4895 10.9031 16.1846C11.0414 16.8797 11.3826 17.5182 11.8838 18.0193C12.3849 18.5205 13.0234 18.8617 13.7185 19C14.4136 19.1383 15.1341 19.0673 15.7889 18.7961C16.4436 18.5249 17.0033 18.0656 17.397 17.4763C17.7908 16.887 18.0009 16.1942 18.0009 15.4855C17.9999 14.5355 17.622 13.6247 16.9502 12.9529C16.2784 12.2811 15.3676 11.9033 14.4176 11.9022ZM14.4176 18.5689C13.8078 18.5689 13.2116 18.388 12.7046 18.0492C12.1975 17.7104 11.8023 17.2289 11.569 16.6655C11.3356 16.1021 11.2745 15.4821 11.3935 14.884C11.5125 14.2859 11.8061 13.7365 12.2373 13.3053C12.6685 12.8741 13.2179 12.5804 13.8161 12.4614C14.4142 12.3425 15.0341 12.4035 15.5975 12.6369C16.1609 12.8703 16.6425 13.2655 16.9813 13.7725C17.3201 14.2796 17.5009 14.8757 17.5009 15.4855C17.5 16.303 17.1749 17.0868 16.5969 17.6648C16.0188 18.2428 15.2351 18.568 14.4176 18.5689ZM15.5942 16.3089C15.6188 16.3317 15.6385 16.3593 15.6522 16.39C15.6658 16.4207 15.6732 16.4538 15.6738 16.4874C15.6744 16.5209 15.6682 16.5543 15.6556 16.5854C15.643 16.6165 15.6243 16.6448 15.6006 16.6685C15.5769 16.6923 15.5486 16.711 15.5174 16.7236C15.4863 16.7361 15.453 16.7423 15.4194 16.7417C15.3858 16.7411 15.3527 16.7338 15.3221 16.7201C15.2914 16.7065 15.2638 16.6868 15.2409 16.6622L14.2409 15.6622C14.2176 15.639 14.1992 15.6115 14.1866 15.5812C14.174 15.5509 14.1676 15.5184 14.1676 15.4855V13.8189C14.1676 13.7526 14.1939 13.689 14.2408 13.6421C14.2877 13.5952 14.3513 13.5689 14.4176 13.5689C14.4839 13.5689 14.5475 13.5952 14.5944 13.6421C14.6412 13.689 14.6676 13.7526 14.6676 13.8189V15.3819L15.5942 16.3089Z" fill="#0F1010"/>
</svg>
