<svg width="18" height="20" viewBox="0 0 18 20" fill="none" xmlns="http://www.w3.org/2000/svg">
<path d="M9 18.25H4C2.423 18.25 1.75 17.577 1.75 16V4.00004C1.75 2.42304 2.423 1.75004 4 1.75004H9.25V4.00004C9.19127 4.5067 9.24787 5.02008 9.41557 5.50177C9.58326 5.98347 9.8577 6.42101 10.2184 6.78168C10.579 7.14234 11.0166 7.41678 11.4983 7.58447C11.98 7.75216 12.4933 7.80876 13 7.75004H15.25V10C15.25 10.1989 15.329 10.3897 15.4697 10.5304C15.6103 10.671 15.8011 10.75 16 10.75C16.1989 10.75 16.3897 10.671 16.5303 10.5304C16.671 10.3897 16.75 10.1989 16.75 10V7.00004C16.7501 6.90155 16.7307 6.80403 16.6929 6.71307C16.6552 6.62211 16.5998 6.53952 16.53 6.47004L10.53 0.470036C10.4605 0.400239 10.3779 0.34487 10.287 0.307113C10.196 0.269357 10.0985 0.249959 10 0.250036H4C3.49334 0.191312 2.97996 0.247913 2.49826 0.415604C2.01656 0.583296 1.57902 0.857736 1.21836 1.2184C0.857698 1.57906 0.583257 2.0166 0.415566 2.4983C0.247875 2.98 0.191274 3.49338 0.249998 4.00004V16C0.191274 16.5067 0.247875 17.0201 0.415566 17.5018C0.583257 17.9835 0.857698 18.421 1.21836 18.7817C1.57902 19.1423 2.01656 19.4168 2.49826 19.5845C2.97996 19.7522 3.49334 19.8088 4 19.75H9C9.19891 19.75 9.38968 19.671 9.53033 19.5304C9.67098 19.3897 9.75 19.1989 9.75 19C9.75 18.8011 9.67098 18.6104 9.53033 18.4697C9.38968 18.3291 9.19891 18.25 9 18.25ZM10.75 4.00004V2.81104L14.189 6.25004H13C11.423 6.25004 10.75 5.57704 10.75 4.00004ZM12 9.25004C12.1989 9.25004 12.3897 9.32905 12.5303 9.46971C12.671 9.61036 12.75 9.80112 12.75 10C12.75 10.1989 12.671 10.3897 12.5303 10.5304C12.3897 10.671 12.1989 10.75 12 10.75H5C4.80109 10.75 4.61032 10.671 4.46967 10.5304C4.32902 10.3897 4.25 10.1989 4.25 10C4.25 9.80112 4.32902 9.61036 4.46967 9.46971C4.61032 9.32905 4.80109 9.25004 5 9.25004H12ZM9.75 14C9.75 14.1989 9.67098 14.3897 9.53033 14.5304C9.38968 14.671 9.19891 14.75 9 14.75H5C4.80109 14.75 4.61032 14.671 4.46967 14.5304C4.32902 14.3897 4.25 14.1989 4.25 14C4.25 13.8011 4.32902 13.6104 4.46967 13.4697C4.61032 13.3291 4.80109 13.25 5 13.25H9C9.19891 13.25 9.38968 13.3291 9.53033 13.4697C9.67098 13.6104 9.75 13.8011 9.75 14Z" fill="#0F1010"/>
<path d="M14.4176 11.9022C13.7089 11.9022 13.0161 12.1124 12.4268 12.5061C11.8375 12.8999 11.3783 13.4595 11.107 14.1143C10.8358 14.769 10.7649 15.4895 10.9031 16.1846C11.0414 16.8797 11.3827 17.5182 11.8838 18.0194C12.3849 18.5205 13.0234 18.8618 13.7185 19C14.4136 19.1383 15.1341 19.0673 15.7889 18.7961C16.4437 18.5249 17.0033 18.0656 17.397 17.4763C17.7908 16.8871 18.0009 16.1943 18.0009 15.4856C17.9999 14.5355 17.622 13.6247 16.9502 12.9529C16.2785 12.2812 15.3676 11.9033 14.4176 11.9022ZM14.4176 18.5689C13.8078 18.5689 13.2116 18.3881 12.7046 18.0493C12.1975 17.7105 11.8023 17.2289 11.569 16.6655C11.3356 16.1021 11.2745 15.4821 11.3935 14.884C11.5125 14.2859 11.8061 13.7365 12.2374 13.3053C12.6686 12.8741 13.218 12.5804 13.8161 12.4615C14.4142 12.3425 15.0341 12.4036 15.5975 12.6369C16.161 12.8703 16.6425 13.2655 16.9813 13.7725C17.3201 14.2796 17.5009 14.8757 17.5009 15.4856C17.5001 16.303 17.1749 17.0868 16.5969 17.6648C16.0188 18.2429 15.2351 18.568 14.4176 18.5689ZM15.5943 16.3089C15.6188 16.3318 15.6385 16.3594 15.6522 16.39C15.6659 16.4207 15.6732 16.4538 15.6738 16.4874C15.6744 16.521 15.6682 16.5543 15.6556 16.5854C15.6431 16.6166 15.6244 16.6448 15.6006 16.6686C15.5769 16.6923 15.5486 16.711 15.5175 16.7236C15.4863 16.7362 15.453 16.7423 15.4194 16.7418C15.3859 16.7412 15.3528 16.7338 15.3221 16.7201C15.2914 16.7065 15.2638 16.6868 15.2409 16.6622L14.2409 15.6622C14.2177 15.6391 14.1992 15.6115 14.1866 15.5812C14.174 15.5509 14.1676 15.5184 14.1676 15.4856V13.8189C14.1676 13.7526 14.1939 13.689 14.2408 13.6421C14.2877 13.5952 14.3513 13.5689 14.4176 13.5689C14.4839 13.5689 14.5475 13.5952 14.5944 13.6421C14.6413 13.689 14.6676 13.7526 14.6676 13.8189V15.3819L15.5943 16.3089Z" fill="#0F1010"/>
</svg>
