<svg width="22" height="16" viewBox="0 0 22 16" fill="none" xmlns="http://www.w3.org/2000/svg">
<path d="M20.9 2.20798C20.6456 2.08416 20.3612 2.03543 20.0801 2.06749C19.799 2.09954 19.5329 2.21106 19.313 2.38898L16.75 4.43898V3.99998C16.8087 3.49332 16.7521 2.97994 16.5844 2.49824C16.4167 2.01654 16.1423 1.579 15.7816 1.21834C15.421 0.857675 14.9834 0.583235 14.5017 0.415543C14.02 0.247852 13.5066 0.191251 13 0.249975H3.99998C3.49332 0.191251 2.97994 0.247852 2.49824 0.415543C2.01654 0.583235 1.579 0.857675 1.21834 1.21834C0.857675 1.579 0.583235 2.01654 0.415543 2.49824C0.247852 2.97994 0.191251 3.49332 0.249975 3.99998V12C0.191251 12.5066 0.247852 13.02 0.415543 13.5017C0.583235 13.9834 0.857675 14.421 1.21834 14.7816C1.579 15.1423 2.01654 15.4167 2.49824 15.5844C2.97994 15.7521 3.49332 15.8087 3.99998 15.75H13C13.5066 15.8087 14.02 15.7521 14.5017 15.5844C14.9834 15.4167 15.421 15.1423 15.7816 14.7816C16.1423 14.421 16.4167 13.9834 16.5844 13.5017C16.7521 13.02 16.8087 12.5066 16.75 12V11.561L19.313 13.611C19.5774 13.8246 19.9071 13.941 20.247 13.941C20.473 13.9406 20.6961 13.8897 20.9 13.792C21.1554 13.6703 21.371 13.4785 21.5215 13.239C21.672 12.9994 21.7513 12.7219 21.75 12.439V3.56098C21.7513 3.27804 21.672 3.00058 21.5215 2.761C21.371 2.52142 21.1554 2.32961 20.9 2.20798ZM15.25 12C15.25 13.577 14.577 14.25 13 14.25H3.99998C2.42298 14.25 1.74998 13.577 1.74998 12V3.99998C1.74998 2.42298 2.42298 1.74998 3.99998 1.74998H13C14.577 1.74998 15.25 2.42298 15.25 3.99998V12ZM20.25 12.44L16.75 9.63998V6.35997L20.25 3.55998V12.44ZM8.49998 4.12498C7.5733 4.16522 6.67342 4.44794 5.89024 4.94491C5.10706 5.44187 4.46802 6.13567 4.03698 6.95697C3.84894 7.2722 3.74967 7.63242 3.74967 7.99948C3.74967 8.36653 3.84894 8.72675 4.03698 9.04198C4.46789 9.86346 5.10688 10.5575 5.89006 11.0546C6.67325 11.5518 7.5732 11.8346 8.49998 11.875C9.42665 11.8347 10.3265 11.552 11.1097 11.055C11.8929 10.5581 12.5319 9.86428 12.963 9.04298C13.151 8.72775 13.2503 8.36753 13.2503 8.00047C13.2503 7.63342 13.151 7.27321 12.963 6.95798C12.5321 6.13649 11.8931 5.44249 11.1099 4.94534C10.3267 4.44819 9.42675 4.16531 8.49998 4.12498ZM11.674 8.27497C11.3715 8.86947 10.9201 9.37542 10.3639 9.74347C9.80758 10.1115 9.16541 10.3291 8.49998 10.375C7.83452 10.3292 7.1923 10.1116 6.63601 9.74359C6.07971 9.37553 5.62835 8.86953 5.32598 8.27497C5.27641 8.19163 5.25025 8.09645 5.25025 7.99948C5.25025 7.9025 5.27641 7.80732 5.32598 7.72398C5.62856 7.12967 6.08 6.62392 6.63627 6.25605C7.19254 5.88819 7.83465 5.67076 8.49998 5.62498C9.16543 5.67076 9.80765 5.8883 10.3639 6.25636C10.9202 6.62442 11.3716 7.13042 11.674 7.72498C11.7236 7.80814 11.7497 7.90316 11.7497 7.99998C11.7497 8.0968 11.7236 8.19181 11.674 8.27497ZM9.51998 7.99998C9.51997 8.19733 9.46156 8.39027 9.35211 8.55449C9.24267 8.71872 9.08708 8.84689 8.90493 8.92286C8.72279 8.99883 8.52224 9.01921 8.32853 8.98143C8.13483 8.94365 7.95664 8.84939 7.81639 8.71054C7.67615 8.57169 7.58013 8.39444 7.54042 8.20112C7.50072 8.00781 7.5191 7.80706 7.59326 7.62417C7.66741 7.44128 7.79403 7.28442 7.95716 7.17335C8.12028 7.06227 8.31263 7.00195 8.50998 6.99998H8.51998C8.78519 6.99998 9.03955 7.10533 9.22708 7.29287C9.41462 7.4804 9.51998 7.73476 9.51998 7.99998Z" fill="#25314C"/>
</svg>
