<svg width="284" height="284" viewBox="0 0 284 284" fill="none" xmlns="http://www.w3.org/2000/svg">
<g opacity="0.5">
<path d="M166.14 42.6L224.36 100.82V221.52C224.36 232.499 215.459 241.4 204.48 241.4H79.5199C68.5405 241.4 59.6399 232.499 59.6399 221.52V62.48C59.6399 51.5006 68.5405 42.6 79.5199 42.6H166.14Z" fill="#B1E3FF"/>
<path d="M166.14 42.6V80.94C166.14 91.9194 175.04 100.82 186.02 100.82H224.36" fill="#FAE3A9"/>
<path d="M220.1 193.12C209.178 193.12 198.704 197.459 190.981 205.181C183.259 212.904 178.92 223.378 178.92 234.3C178.92 245.222 183.259 255.696 190.981 263.419C198.704 271.141 209.178 275.48 220.1 275.48C231.022 275.48 241.496 271.141 249.219 263.419C256.941 255.696 261.28 245.222 261.28 234.3C261.28 223.378 256.941 212.904 249.219 205.181C241.496 197.459 231.022 193.12 220.1 193.12Z" fill="#F4CCCB"/>
<path d="M220.1 222.534C216.101 216.624 211.503 214.69 207.32 214.44C200.356 214.025 194.54 220.358 194.54 229.784C194.54 243.618 212.361 255.396 220.1 259.857C227.839 255.396 245.66 243.612 245.66 229.784C245.66 220.358 239.844 214.022 232.88 214.437C228.697 214.687 224.099 216.621 220.1 222.534Z" fill="#F15B6C"/>
<path d="M80.94 227.2H179.545C179.374 228.137 179.232 229.074 179.119 230.04H80.94C75.4588 230.04 71 225.581 71 220.1V63.9C71 58.4188 75.4588 53.96 80.94 53.96H117.86C118.655 53.96 119.28 54.5848 119.28 55.38C119.28 56.1752 118.655 56.8 117.86 56.8H80.94C77.0208 56.8 73.84 59.9808 73.84 63.9V220.1C73.84 224.019 77.0208 227.2 80.94 227.2ZM213 149.1V193.745C212.034 193.887 211.097 194.086 210.16 194.341V149.1C210.16 148.305 210.785 147.68 211.58 147.68C212.375 147.68 213 148.305 213 149.1ZM211.58 127.8C210.796 127.8 210.16 128.436 210.16 129.22V140.58C210.16 141.364 210.796 142 211.58 142C212.364 142 213 141.364 213 140.58V129.22C213 128.436 212.364 127.8 211.58 127.8ZM211.58 113.6C210.796 113.6 210.16 114.236 210.16 115.02V120.7C210.16 121.484 210.796 122.12 211.58 122.12C212.364 122.12 213 121.484 213 120.7V115.02C213 114.236 212.364 113.6 211.58 113.6Z" fill="#1F212B"/>
<path d="M226.376 98.8036L168.156 40.5836C167.617 40.0724 166.907 39.76 166.14 39.76H79.52C66.9956 39.76 56.8 49.9556 56.8 62.48V221.52C56.8 234.044 66.9956 244.24 79.52 244.24H180.141C179.658 242.394 179.346 240.491 179.119 238.56H79.52C70.1196 238.56 62.48 230.92 62.48 221.52V62.48C62.48 53.0796 70.1196 45.44 79.52 45.44H164.72V80.94C164.72 92.6976 174.262 102.24 186.02 102.24H221.52V193.148C223.451 193.205 225.354 193.404 227.2 193.745V100.82C227.2 100.053 226.888 99.3432 226.376 98.8036ZM186.02 99.4C175.853 99.4 167.56 91.1072 167.56 80.94V48.0244L218.936 99.4H186.02Z" fill="#1F212B"/>
<path d="M220.1 278.32C195.827 278.32 176.08 258.573 176.08 234.3C176.08 210.027 195.827 190.28 220.1 190.28C244.374 190.28 264.12 210.027 264.12 234.3C264.12 258.573 244.374 278.32 220.1 278.32ZM220.1 195.96C198.959 195.96 181.76 213.159 181.76 234.3C181.76 255.441 198.959 272.64 220.1 272.64C241.241 272.64 258.44 255.441 258.44 234.3C258.44 213.159 241.241 195.96 220.1 195.96Z" fill="#1F212B"/>
<path d="M220.1 261.28C219.856 261.28 219.611 261.218 219.39 261.09C211.492 256.537 193.12 244.371 193.12 229.787C193.12 224.295 194.949 219.549 198.272 216.417C200.808 214.028 204.048 212.841 207.405 213.023C212.35 213.318 216.612 215.704 220.1 220.126C223.59 215.701 227.85 213.315 232.795 213.023C236.135 212.827 239.389 214.028 241.925 216.417C245.248 219.546 247.08 224.295 247.08 229.787C247.08 244.371 228.708 256.537 220.81 261.09C220.588 261.218 220.344 261.28 220.1 261.28ZM206.667 215.84C204.281 215.84 202.06 216.749 200.22 218.484C197.513 221.034 195.96 225.155 195.96 229.787C195.96 242.491 212.296 253.626 220.1 258.218C227.904 253.626 244.24 242.491 244.24 229.787C244.24 225.155 242.686 221.034 239.98 218.484C237.992 216.61 235.572 215.698 232.965 215.857C228.313 216.133 224.491 218.578 221.276 223.329C220.747 224.107 219.45 224.107 218.924 223.329C215.709 218.581 211.887 216.135 207.235 215.857C207.044 215.846 206.854 215.84 206.667 215.84ZM197.38 124.96H115.02C114.236 124.96 113.6 124.324 113.6 123.54C113.6 122.756 114.236 122.12 115.02 122.12H197.38C198.164 122.12 198.8 122.756 198.8 123.54C198.8 124.324 198.164 124.96 197.38 124.96ZM197.38 150.52H115.02C114.236 150.52 113.6 149.884 113.6 149.1C113.6 148.316 114.236 147.68 115.02 147.68H197.38C198.164 147.68 198.8 148.316 198.8 149.1C198.8 149.884 198.164 150.52 197.38 150.52ZM103.66 124.96H86.62C85.8361 124.96 85.2 124.324 85.2 123.54C85.2 122.756 85.8361 122.12 86.62 122.12H103.66C104.444 122.12 105.08 122.756 105.08 123.54C105.08 124.324 104.444 124.96 103.66 124.96ZM103.66 150.52H86.62C85.8361 150.52 85.2 149.884 85.2 149.1C85.2 148.316 85.8361 147.68 86.62 147.68H103.66C104.444 147.68 105.08 148.316 105.08 149.1C105.08 149.884 104.444 150.52 103.66 150.52ZM197.38 176.08H115.02C114.236 176.08 113.6 175.444 113.6 174.66C113.6 173.876 114.236 173.24 115.02 173.24H197.38C198.164 173.24 198.8 173.876 198.8 174.66C198.8 175.444 198.164 176.08 197.38 176.08ZM103.66 176.08H86.62C85.8361 176.08 85.2 175.444 85.2 174.66C85.2 173.876 85.8361 173.24 86.62 173.24H103.66C104.444 173.24 105.08 173.876 105.08 174.66C105.08 175.444 104.444 176.08 103.66 176.08ZM197.38 201.64H115.02C114.236 201.64 113.6 201.004 113.6 200.22C113.6 199.436 114.236 198.8 115.02 198.8H197.38C198.164 198.8 198.8 199.436 198.8 200.22C198.8 201.004 198.164 201.64 197.38 201.64ZM103.66 201.64H86.62C85.8361 201.64 85.2 201.004 85.2 200.22C85.2 199.436 85.8361 198.8 86.62 198.8H103.66C104.444 198.8 105.08 199.436 105.08 200.22C105.08 201.004 104.444 201.64 103.66 201.64Z" fill="#1F212B"/>
<path d="M75.75 194.25L75.7425 251.743L60.2225 240.73C60.0062 240.576 59.7537 240.5 59.5 240.5C59.2463 240.5 58.9938 240.576 58.7763 240.73L43.25 251.749V194.25H75.75Z" fill="#F16675"/>
<path d="M75.25 194.75V250.78L60.5125 240.323C60.21 240.108 59.855 240 59.5 240C59.145 240 58.79 240.108 58.4875 240.323L43.75 250.78V194.75H75.25ZM75.75 193H43.25C42.56 193 42 193.559 42 194.249V251.749C42 252.486 42.6063 253 43.255 253C43.5013 253 43.7537 252.926 43.9812 252.762L59.5 241.75L75.02 252.762C75.2475 252.926 75.5 253 75.7463 253C76.3938 253 77 252.486 77 251.749V194.249C77 193.559 76.44 193 75.75 193Z" fill="#472B29"/>
</g>
</svg>
