<svg width="36" height="35" viewBox="0 0 36 35" fill="none" xmlns="http://www.w3.org/2000/svg">
<path d="M17.9995 34.875C17.8029 34.8752 17.6085 34.8334 17.4294 34.7522C16.8299 34.479 2.72052 27.9358 0.460018 16.2813C-0.0179865 14.2672 -0.055618 12.1736 0.349694 10.1435C0.755006 8.11347 1.59371 6.19483 2.80852 4.51865C3.76745 3.36732 4.9752 2.44867 6.34077 1.83194C7.70633 1.21522 9.19407 0.916503 10.6919 0.958315H10.7395C12.1816 0.953082 13.6019 1.30986 14.8703 1.99596C16.1387 2.68205 17.2147 3.67552 17.9995 4.88532C18.7881 3.66975 19.8704 2.67265 21.1464 1.98625C22.4225 1.29984 23.851 0.946301 25.2999 0.958315C26.7998 0.914541 28.29 1.21231 29.658 1.8291C31.0259 2.4459 32.2357 3.36558 33.196 4.51865C34.4095 6.19547 35.2468 8.11438 35.6508 10.1444C36.0549 12.1744 36.0161 14.2677 35.5372 16.2813C33.2785 27.9358 19.1692 34.479 18.5697 34.7522C18.3906 34.8334 18.1962 34.8752 17.9995 34.875ZM10.7432 3.70832H10.712C9.61728 3.66228 8.52663 3.86885 7.52455 4.31203C6.52247 4.75521 5.63584 5.4231 4.93335 6.26398C3.97577 7.62766 3.32184 9.18088 3.0157 10.8188C2.70955 12.4568 2.75831 14.1413 3.15868 15.7588C4.90952 24.7862 15.42 30.6528 18.0087 31.9692C20.5882 30.6528 31.0987 24.7862 32.8477 15.7588C33.2489 14.1418 33.2987 12.4576 32.9938 10.8197C32.689 9.18183 32.0365 7.62834 31.0804 6.26398C30.3758 5.42173 29.4867 4.75308 28.482 4.30988C27.4773 3.86667 26.3841 3.66083 25.287 3.70832H25.2559C23.9237 3.78575 22.6452 4.25966 21.5845 5.06918C20.5237 5.8787 19.7292 6.98686 19.303 8.25132C19.2098 8.52274 19.0343 8.75841 18.8011 8.92562C18.5679 9.09284 18.2883 9.18331 18.0014 9.18449C17.7138 9.18335 17.4338 9.09222 17.2007 8.92387C16.9676 8.75553 16.793 8.51842 16.7015 8.24582C16.2738 6.98169 15.4781 5.87426 14.4164 5.06574C13.3547 4.25721 12.0755 3.7845 10.7432 3.70832Z" fill="#1A1B1B"/>
</svg>
