<svg width="84" height="84" viewBox="0 0 84 84" fill="none" xmlns="http://www.w3.org/2000/svg">
<rect opacity="0.3" width="84" height="84" rx="12" fill="#9105FE" fill-opacity="0.7"/>
<path fill-rule="evenodd" clip-rule="evenodd" d="M44.5833 20.0423C44.5833 18.6156 43.4268 17.459 42 17.459C40.5732 17.459 39.4167 18.6156 39.4167 20.0423V21.4869C36.394 21.8492 33.6128 22.8455 31.3984 24.3751C28.5551 26.3391 26.5 29.3172 26.5 32.959C26.5 36.2501 27.7701 39.3065 30.576 41.4649C32.7888 43.167 35.7681 44.1668 39.4167 44.4781V57.2989C37.3916 56.9744 35.6462 56.2811 34.3348 55.3751C32.5031 54.1098 31.6667 52.5673 31.6667 51.0423C31.6667 49.6155 30.5101 48.459 29.0833 48.459C27.6566 48.459 26.5 49.6155 26.5 51.0423C26.5 54.684 28.5551 57.6624 31.3984 59.6262C33.6128 61.1558 36.394 62.1522 39.4167 62.5144V63.959C39.4167 65.3858 40.5732 66.5423 42 66.5423C43.4268 66.5423 44.5833 65.3858 44.5833 63.959V62.5214C47.5857 62.1767 50.3638 61.2271 52.585 59.7184C55.4649 57.7623 57.5 54.7716 57.5 51.0423C57.5 47.6669 56.2455 44.5897 53.4075 42.4429C51.1889 40.7648 48.2101 39.8136 44.5833 39.5181V26.7025C46.6084 27.0268 48.354 27.7203 49.6653 28.6262C51.4968 29.8914 52.3333 31.4341 52.3333 32.959C52.3333 34.3857 53.4899 35.5423 54.9167 35.5423C56.3434 35.5423 57.5 34.3857 57.5 32.959C57.5 29.3172 55.445 26.3391 52.6017 24.3751C50.3873 22.8454 47.6061 21.8491 44.5833 21.4869V20.0423ZM39.4167 26.7025C37.3916 27.0268 35.6462 27.7204 34.3348 28.6262C32.5031 29.8914 31.6667 31.4341 31.6667 32.959C31.6667 34.8345 32.334 36.2989 33.7262 37.3698C34.8777 38.2556 36.6962 38.9999 39.4167 39.2887V26.7025ZM44.5833 44.7054V57.3103C46.627 57.0005 48.3762 56.3314 49.6821 55.4443C51.477 54.2252 52.3333 52.6951 52.3333 51.0423C52.3333 49.0356 51.6503 47.592 50.2907 46.5636C49.145 45.6971 47.3258 44.981 44.5833 44.7054Z" fill="#9105FE"/>
</svg>
