<svg width="36" height="36" viewBox="0 0 36 36" fill="none" xmlns="http://www.w3.org/2000/svg">
<path fill-rule="evenodd" clip-rule="evenodd" d="M18 10.875C18.6213 10.875 19.125 11.3787 19.125 12V16.875H24C24.6213 16.875 25.125 17.3787 25.125 18C25.125 18.6213 24.6213 19.125 24 19.125H19.125V24C19.125 24.6213 18.6213 25.125 18 25.125C17.3787 25.125 16.875 24.6213 16.875 24V19.125H12C11.3787 19.125 10.875 18.6213 10.875 18C10.875 17.3787 11.3787 16.875 12 16.875H16.875V12C16.875 11.3787 17.3787 10.875 18 10.875Z" fill="#0878AF"/>
</svg>
