<svg width="84" height="84" viewBox="0 0 84 84" fill="none" xmlns="http://www.w3.org/2000/svg">
<rect opacity="0.3" width="84" height="84" rx="12" fill="#6FFC58" fill-opacity="0.7"/>
<path d="M65.25 36.1875H63.3125V14.875C64.475 14.875 65.25 14.1 65.25 12.9375C65.25 11.775 64.475 11 63.3125 11H61.375H49.75H47.8125C46.65 11 45.875 11.775 45.875 12.9375C45.875 14.1 46.65 14.875 47.8125 14.875V36.1875H45.875C42.5812 36.1875 40.0625 38.7062 40.0625 42V47.8125H71.0625V42C71.0625 38.7062 68.5438 36.1875 65.25 36.1875ZM51.6875 14.875H59.4375V36.1875H51.6875V14.875Z" fill="#6FFC58"/>
<path d="M40.0625 67.1875C40.0625 70.4813 42.5812 73 45.875 73H65.25C68.5438 73 71.0625 70.4813 71.0625 67.1875V51.6875H40.0625V67.1875Z" fill="#6FFC58"/>
<path d="M11 49.75V67.1875C11 70.4813 13.5187 73 16.8125 73H20.6875V43.9375H16.8125C13.5187 43.9375 11 46.4562 11 49.75Z" fill="#6FFC58"/>
<path d="M36.1875 43.9375H24.5625V73H36.1875V43.9375Z" fill="#6FFC58"/>
<path d="M34.25 32.3125H26.5C25.3375 32.3125 24.5625 33.0875 24.5625 34.25V40.0625H28.4375V36.1875H32.3125V40.0625H36.1875V34.25C36.1875 33.0875 35.4125 32.3125 34.25 32.3125Z" fill="#6FFC58"/>
</svg>
