<svg width="48" height="48" viewBox="0 0 48 48" fill="none" xmlns="http://www.w3.org/2000/svg">
<path d="M23.9981 11.2188C18.1417 11.2188 12.8945 13.4754 8.9803 17.2498C8.22142 17.9887 8.20145 19.2069 8.94036 19.9658C9.67927 20.7247 10.8975 20.7446 11.6563 20.0057C14.9015 16.8804 19.1153 15.0531 23.9981 15.0531C28.8808 15.0531 33.0946 16.8804 36.3398 20.0057C37.0986 20.7446 38.3168 20.7247 39.0557 19.9658C39.7947 19.2069 39.7747 17.9887 39.0158 17.2498C35.1016 13.4754 29.8544 11.2188 23.9981 11.2188ZM23.9981 17.6093C19.7643 17.6093 15.935 19.3617 13.1741 22.1226C12.4252 22.8715 12.4252 24.0897 13.1741 24.8386C13.923 25.5875 15.1412 25.5875 15.8901 24.8386C17.987 22.7417 20.8228 21.4436 23.9981 21.4436C27.1733 21.4436 30.0091 22.7417 32.106 24.8386C32.8549 25.5875 34.0731 25.5875 34.822 24.8386C35.5709 24.0897 35.5709 22.8715 34.822 22.1226C32.0611 19.3617 28.2318 17.6093 23.9981 17.6093ZM23.9981 23.9998C21.3919 23.9998 18.9755 25.1032 17.3279 26.9155C16.609 27.6993 16.6639 28.9125 17.4478 29.6315C18.2316 30.3504 19.4448 30.2955 20.1637 29.5116C21.0724 28.5131 22.5103 27.8341 23.9981 27.8341C25.4858 27.8341 26.9237 28.5131 27.8324 29.5116C28.5513 30.2955 29.7645 30.3504 30.5483 29.6315C31.3322 28.9125 31.3871 27.6993 30.6682 26.9155C29.0206 25.1032 26.6042 23.9998 23.9981 23.9998ZM23.9981 30.63C22.7299 30.63 21.6815 31.6784 21.6815 32.9466C21.6815 34.2147 22.7299 35.2631 23.9981 35.2631C25.2662 35.2631 26.3146 34.2147 26.3146 32.9466C26.3146 31.6784 25.2662 30.63 23.9981 30.63Z" fill="#2F3030"/>
<rect x="0.15" y="0.15" width="47.7" height="47.7" rx="11.85" stroke="#4F5050" stroke-width="0.3"/>
</svg>
